<svg id="Layer_1" data-name="Layer 1" xmlns="http://www.w3.org/2000/svg" xmlns:xlink="http://www.w3.org/1999/xlink" viewBox="0 0 122.4 81.64"><defs><style>.cls-1{fill:url(#linear-gradient);}.cls-2{fill:url(#linear-gradient-2);}.cls-3{fill:url(#linear-gradient-3);}.cls-4{fill:url(#linear-gradient-4);}.cls-5{fill:url(#linear-gradient-5);}.cls-6{fill:url(#linear-gradient-6);}.cls-7{fill:url(#linear-gradient-7);}.cls-8{fill:url(#linear-gradient-8);}.cls-9{fill:url(#linear-gradient-9);}.cls-10{fill:url(#linear-gradient-10);}.cls-11{fill:url(#linear-gradient-11);}.cls-12{fill:url(#linear-gradient-12);}.cls-13{fill:none;}.cls-14{fill:url(#linear-gradient-13);}.cls-15{fill:url(#linear-gradient-14);}.cls-16{fill:url(#linear-gradient-15);}.cls-17{fill:url(#linear-gradient-16);}.cls-18{fill:url(#linear-gradient-17);}.cls-19{fill:url(#linear-gradient-18);}.cls-20{fill:url(#linear-gradient-19);}.cls-21{fill:url(#linear-gradient-20);}.cls-22{fill:url(#linear-gradient-21);}.cls-23{fill:url(#linear-gradient-22);}.cls-24{fill:url(#linear-gradient-23);}.cls-25{fill:url(#linear-gradient-24);}.cls-26{fill:url(#linear-gradient-25);}.cls-27{fill:url(#linear-gradient-26);}.cls-28{fill:url(#linear-gradient-27);}.cls-29{fill:url(#linear-gradient-28);}.cls-30{fill:url(#linear-gradient-29);}.cls-31{fill:url(#linear-gradient-30);}.cls-32{fill:url(#linear-gradient-31);}.cls-33{fill:url(#linear-gradient-32);}.cls-34{fill:url(#linear-gradient-33);}.cls-35{fill:url(#linear-gradient-34);}.cls-36{fill:url(#linear-gradient-35);}.cls-37{fill:url(#linear-gradient-36);}.cls-38{fill:url(#linear-gradient-37);}.cls-39{fill:url(#linear-gradient-38);}.cls-40{fill:url(#linear-gradient-39);}.cls-41{fill:url(#linear-gradient-40);}.cls-42{fill:url(#linear-gradient-41);}.cls-43{fill:url(#linear-gradient-42);}.cls-44{fill:url(#linear-gradient-43);}.cls-45{fill:#8dc63f;}</style><linearGradient id="linear-gradient" x1="78.01" y1="208.69" x2="40.67" y2="144.03" gradientUnits="userSpaceOnUse"><stop offset="0" stop-color="#2484c6"/><stop offset="0.03" stop-color="#00aeef" stop-opacity="0.97"/><stop offset="1" stop-color="#fff" stop-opacity="0"/></linearGradient><linearGradient id="linear-gradient-2" x1="46.36" y1="34.02" x2="41.61" y2="25.78" xlink:href="#linear-gradient"/><linearGradient id="linear-gradient-3" x1="60.24" y1="6.08" x2="56.98" y2="0.44" xlink:href="#linear-gradient"/><linearGradient id="linear-gradient-4" x1="54.84" y1="18.43" x2="50.77" y2="11.38" xlink:href="#linear-gradient"/><linearGradient id="linear-gradient-5" x1="59.21" y1="33.95" x2="54.53" y2="25.85" xlink:href="#linear-gradient"/><linearGradient id="linear-gradient-6" x1="63.49" y1="20.99" x2="60.24" y2="15.34" xlink:href="#linear-gradient"/><linearGradient id="linear-gradient-7" x1="54.43" y1="43.64" x2="51.18" y2="38" xlink:href="#linear-gradient"/><linearGradient id="linear-gradient-8" x1="62.72" y1="12.88" x2="60.37" y2="8.8" xlink:href="#linear-gradient"/><linearGradient id="linear-gradient-9" x1="53.57" y1="24.95" x2="52.04" y2="22.3" xlink:href="#linear-gradient"/><linearGradient id="linear-gradient-10" x1="49.5" y1="22.5" x2="47.97" y2="19.85" xlink:href="#linear-gradient"/><linearGradient id="linear-gradient-11" x1="54.71" y1="8.81" x2="53.95" y2="7.48" xlink:href="#linear-gradient"/><linearGradient id="linear-gradient-12" x1="58.42" y1="12.51" x2="57.66" y2="11.19" xlink:href="#linear-gradient"/><linearGradient id="linear-gradient-13" x1="51.01" y1="31.04" x2="50.24" y2="29.72" xlink:href="#linear-gradient"/><linearGradient id="linear-gradient-14" x1="63.51" y1="24.56" x2="62.75" y2="23.23" xlink:href="#linear-gradient"/><linearGradient id="linear-gradient-15" x1="69.93" y1="22.66" x2="67.52" y2="18.49" xlink:href="#linear-gradient"/><linearGradient id="linear-gradient-16" x1="67.41" y1="27.51" x2="65.88" y2="24.86" xlink:href="#linear-gradient"/><linearGradient id="linear-gradient-17" x1="65.7" y1="33.55" x2="63.47" y2="29.68" xlink:href="#linear-gradient"/><linearGradient id="linear-gradient-18" x1="45.47" y1="39.89" x2="43.54" y2="36.55" xlink:href="#linear-gradient"/><linearGradient id="linear-gradient-19" x1="39.55" y1="39.63" x2="37.16" y2="35.5" xlink:href="#linear-gradient"/><linearGradient id="linear-gradient-20" x1="36.74" y1="44.46" x2="35.21" y2="41.81" xlink:href="#linear-gradient"/><linearGradient id="linear-gradient-21" x1="74.04" y1="29.91" x2="72.51" y2="27.26" xlink:href="#linear-gradient"/><linearGradient id="linear-gradient-22" x1="62.31" y1="39.55" x2="60.78" y2="36.9" xlink:href="#linear-gradient"/><linearGradient id="linear-gradient-23" x1="44.47" y1="46.59" x2="42.24" y2="42.73" xlink:href="#linear-gradient"/><linearGradient id="linear-gradient-24" x1="51.1" y1="47.7" x2="49.57" y2="45.05" xlink:href="#linear-gradient"/><linearGradient id="linear-gradient-25" x1="58.42" y1="24.56" x2="57.66" y2="23.23" xlink:href="#linear-gradient"/><linearGradient id="linear-gradient-26" x1="51.28" y1="36.31" x2="49.97" y2="34.04" xlink:href="#linear-gradient"/><linearGradient id="linear-gradient-27" x1="36.19" y1="47.72" x2="35.42" y2="46.39" xlink:href="#linear-gradient"/><linearGradient id="linear-gradient-28" x1="70" y1="32.89" x2="69.24" y2="31.57" xlink:href="#linear-gradient"/><linearGradient id="linear-gradient-29" x1="66.76" y1="39.84" x2="65.99" y2="38.52" xlink:href="#linear-gradient"/><linearGradient id="linear-gradient-30" x1="57.96" y1="43.55" x2="57.19" y2="42.22" xlink:href="#linear-gradient"/><linearGradient id="linear-gradient-31" x1="57.49" y1="37.06" x2="56.73" y2="35.74" xlink:href="#linear-gradient"/><linearGradient id="linear-gradient-32" x1="45.91" y1="48.64" x2="45.15" y2="47.32" xlink:href="#linear-gradient"/><linearGradient id="linear-gradient-33" x1="40.82" y1="50.96" x2="40.05" y2="49.63" xlink:href="#linear-gradient"/><linearGradient id="linear-gradient-34" x1="33" y1="46.02" x2="32.06" y2="44.4" xlink:href="#linear-gradient"/><linearGradient id="linear-gradient-35" x1="35.4" y1="40.86" x2="34.63" y2="39.54" xlink:href="#linear-gradient"/><linearGradient id="linear-gradient-36" x1="36.32" y1="51.52" x2="35.56" y2="50.19" xlink:href="#linear-gradient"/><linearGradient id="linear-gradient-37" x1="54.71" y1="47.25" x2="53.95" y2="45.93" xlink:href="#linear-gradient"/><linearGradient id="linear-gradient-38" x1="73.24" y1="25.48" x2="72.48" y2="24.16" xlink:href="#linear-gradient"/><linearGradient id="linear-gradient-39" x1="63.13" y1="44.46" x2="61.61" y2="41.81" xlink:href="#linear-gradient"/><linearGradient id="linear-gradient-40" x1="73.62" y1="36.5" x2="72.1" y2="33.85" xlink:href="#linear-gradient"/><linearGradient id="linear-gradient-41" x1="33.13" y1="51.59" x2="31.61" y2="48.95" xlink:href="#linear-gradient"/><linearGradient id="linear-gradient-42" x1="70.97" y1="41.52" x2="69.44" y2="38.88" xlink:href="#linear-gradient"/><linearGradient id="linear-gradient-43" x1="79.23" y1="38.38" x2="76.82" y2="34.21" xlink:href="#linear-gradient"/></defs><title>AFlogoOnly</title><path class="cls-1" d="M93.2,182.87a29.53,29.53,0,1,1-59.06,0c0-1.23.18-3.43,3.08-10.33,0,0,6.48-15.44,26.45-41.78h0S93.2,170.13,93.2,182.87Z" transform="translate(-5.07 -130.76)"/><circle class="cls-2" cx="43.98" cy="29.9" r="4.75"/><circle class="cls-3" cx="58.61" cy="3.26" r="3.26"/><circle class="cls-4" cx="52.8" cy="14.91" r="4.07"/><circle class="cls-5" cx="56.87" cy="29.9" r="4.68"/><circle class="cls-6" cx="61.86" cy="18.16" r="3.26"/><circle class="cls-7" cx="52.8" cy="40.82" r="3.26"/><circle class="cls-8" cx="61.55" cy="10.84" r="2.35"/><circle class="cls-9" cx="52.8" cy="23.63" r="1.53"/><circle class="cls-10" cx="48.74" cy="21.17" r="1.53"/><circle class="cls-11" cx="54.33" cy="8.14" r="0.76"/><circle class="cls-12" cx="58.04" cy="11.85" r="0.76"/><circle class="cls-13" cx="50.16" cy="30.38" r="0.76"/><circle class="cls-14" cx="50.63" cy="30.38" r="0.76"/><circle class="cls-15" cx="63.13" cy="23.89" r="0.76"/><circle class="cls-16" cx="68.72" cy="20.57" r="2.41"/><circle class="cls-17" cx="66.65" cy="26.18" r="1.53"/><circle class="cls-18" cx="64.59" cy="31.62" r="2.23"/><circle class="cls-19" cx="44.51" cy="38.22" r="1.93"/><circle class="cls-20" cx="38.36" cy="37.56" r="2.39"/><circle class="cls-21" cx="35.97" cy="43.14" r="1.53"/><circle class="cls-22" cx="73.28" cy="28.58" r="1.53"/><circle class="cls-23" cx="61.55" cy="38.22" r="1.53"/><circle class="cls-24" cx="43.36" cy="44.66" r="2.23"/><circle class="cls-25" cx="50.33" cy="46.38" r="1.53"/><circle class="cls-26" cx="58.04" cy="23.89" r="0.76"/><circle class="cls-27" cx="50.63" cy="35.18" r="1.31"/><circle class="cls-28" cx="35.8" cy="47.05" r="0.76"/><circle class="cls-29" cx="69.62" cy="32.23" r="0.76"/><circle class="cls-30" cx="66.38" cy="39.18" r="0.76"/><circle class="cls-31" cx="57.57" cy="42.89" r="0.76"/><circle class="cls-32" cx="57.11" cy="36.4" r="0.76"/><circle class="cls-33" cx="45.53" cy="47.98" r="0.76"/><circle class="cls-34" cx="40.44" cy="50.3" r="0.76"/><circle class="cls-35" cx="32.53" cy="45.21" r="0.94"/><circle class="cls-36" cx="35.01" cy="40.2" r="0.76"/><circle class="cls-37" cx="35.94" cy="50.85" r="0.76"/><circle class="cls-38" cx="54.33" cy="46.59" r="0.76"/><circle class="cls-39" cx="72.86" cy="24.82" r="0.76"/><circle class="cls-40" cx="62.37" cy="43.14" r="1.53"/><circle class="cls-41" cx="72.86" cy="35.18" r="1.53"/><circle class="cls-42" cx="32.37" cy="50.27" r="1.53"/><circle class="cls-43" cx="70.2" cy="40.2" r="1.53"/><circle class="cls-44" cx="78.02" cy="36.3" r="2.41"/><path class="cls-45" d="M34.14,182.87" transform="translate(-5.07 -130.76)"/><path class="cls-45" d="M91.92,172.36c-5,1.65-12.51,5.22-20.2,7.14-9.09,2.27-18.82,5.84-29.15,6.76-4.55.41-10.47,1.18-14.92-.06-5-1.39-7.2-4.68-4.51-9.62,2.85-5.23,8.57-8.52,13.69-11.23C16.53,174.17,3.42,184,5.23,190c2.43,8.16,36.78,1.77,69.45-8.42,8.74-2.73,18.39-8,24.54-11.67C96.6,169.94,94,171.67,91.92,172.36Z" transform="translate(-5.07 -130.76)"/><path class="cls-45" d="M127.19,154.67c-2.71-6.68-28.26-6.38-49.28-.85,2.23-.25,4.94-0.64,7.73-0.92,7-1.29,17.77-2.83,21.88,4.14,1.76,3,.89,6.58-1.06,9.31a11,11,0,0,1-4.4,4.81,2.76,2.76,0,0,1-.4.18A29.24,29.24,0,0,1,95.37,176a72,72,0,0,1-11.78,5.19l0,0C105.43,174,130.39,162.58,127.19,154.67Z" transform="translate(-5.07 -130.76)"/></svg>