<svg id="Layer_1" data-name="Layer 1" xmlns="http://www.w3.org/2000/svg" xmlns:xlink="http://www.w3.org/1999/xlink" viewBox="0 0 586.61 88.5">
  <defs>
    <style>
      .cls-1 {
        fill: url(#linear-gradient);
      }

      .cls-2 {
        fill: url(#linear-gradient-2);
      }

      .cls-3 {
        fill: url(#linear-gradient-3);
      }

      .cls-4 {
        fill: url(#linear-gradient-4);
      }

      .cls-5 {
        fill: url(#linear-gradient-5);
      }

      .cls-6 {
        fill: url(#linear-gradient-6);
      }

      .cls-7 {
        fill: url(#linear-gradient-7);
      }

      .cls-8 {
        fill: url(#linear-gradient-8);
      }

      .cls-9 {
        fill: url(#linear-gradient-9);
      }

      .cls-10 {
        fill: url(#linear-gradient-10);
      }

      .cls-11 {
        fill: url(#linear-gradient-11);
      }

      .cls-12 {
        fill: url(#linear-gradient-12);
      }

      .cls-13 {
        fill: none;
      }

      .cls-14 {
        fill: url(#linear-gradient-13);
      }

      .cls-15 {
        fill: url(#linear-gradient-14);
      }

      .cls-16 {
        fill: url(#linear-gradient-15);
      }

      .cls-17 {
        fill: url(#linear-gradient-16);
      }

      .cls-18 {
        fill: url(#linear-gradient-17);
      }

      .cls-19 {
        fill: url(#linear-gradient-18);
      }

      .cls-20 {
        fill: url(#linear-gradient-19);
      }

      .cls-21 {
        fill: url(#linear-gradient-20);
      }

      .cls-22 {
        fill: url(#linear-gradient-21);
      }

      .cls-23 {
        fill: url(#linear-gradient-22);
      }

      .cls-24 {
        fill: url(#linear-gradient-23);
      }

      .cls-25 {
        fill: url(#linear-gradient-24);
      }

      .cls-26 {
        fill: url(#linear-gradient-25);
      }

      .cls-27 {
        fill: url(#linear-gradient-26);
      }

      .cls-28 {
        fill: url(#linear-gradient-27);
      }

      .cls-29 {
        fill: url(#linear-gradient-28);
      }

      .cls-30 {
        fill: url(#linear-gradient-29);
      }

      .cls-31 {
        fill: url(#linear-gradient-30);
      }

      .cls-32 {
        fill: url(#linear-gradient-31);
      }

      .cls-33 {
        fill: url(#linear-gradient-32);
      }

      .cls-34 {
        fill: url(#linear-gradient-33);
      }

      .cls-35 {
        fill: url(#linear-gradient-34);
      }

      .cls-36 {
        fill: url(#linear-gradient-35);
      }

      .cls-37 {
        fill: url(#linear-gradient-36);
      }

      .cls-38 {
        fill: url(#linear-gradient-37);
      }

      .cls-39 {
        fill: url(#linear-gradient-38);
      }

      .cls-40 {
        fill: url(#linear-gradient-39);
      }

      .cls-41 {
        fill: url(#linear-gradient-40);
      }

      .cls-42 {
        fill: url(#linear-gradient-41);
      }

      .cls-43 {
        fill: url(#linear-gradient-42);
      }

      .cls-44 {
        fill: url(#linear-gradient-43);
      }

      .cls-45 {
        fill: #8dc63f;
      }

      .cls-46 {
        fill: #00aeef;
      }

      .cls-47 {
        fill: #414042;
      }
    </style>
    <linearGradient id="linear-gradient" x1="76.36" y1="429.31" x2="39.03" y2="364.65" gradientUnits="userSpaceOnUse">
      <stop offset="0" stop-color="#2484c6"/>
      <stop offset="0.03" stop-color="#00aeef" stop-opacity="0.97"/>
      <stop offset="1" stop-color="#fff" stop-opacity="0"/>
    </linearGradient>
    <linearGradient id="linear-gradient-2" x1="46.36" y1="34.02" x2="41.61" y2="25.78" xlink:href="#linear-gradient"/>
    <linearGradient id="linear-gradient-3" x1="60.24" y1="6.08" x2="56.98" y2="0.44" xlink:href="#linear-gradient"/>
    <linearGradient id="linear-gradient-4" x1="54.84" y1="18.43" x2="50.77" y2="11.38" xlink:href="#linear-gradient"/>
    <linearGradient id="linear-gradient-5" x1="59.21" y1="33.95" x2="54.53" y2="25.85" xlink:href="#linear-gradient"/>
    <linearGradient id="linear-gradient-6" x1="63.49" y1="20.99" x2="60.24" y2="15.34" xlink:href="#linear-gradient"/>
    <linearGradient id="linear-gradient-7" x1="54.43" y1="43.64" x2="51.18" y2="38" xlink:href="#linear-gradient"/>
    <linearGradient id="linear-gradient-8" x1="62.72" y1="12.88" x2="60.37" y2="8.8" xlink:href="#linear-gradient"/>
    <linearGradient id="linear-gradient-9" x1="53.57" y1="24.95" x2="52.04" y2="22.3" xlink:href="#linear-gradient"/>
    <linearGradient id="linear-gradient-10" x1="49.5" y1="22.5" x2="47.97" y2="19.85" xlink:href="#linear-gradient"/>
    <linearGradient id="linear-gradient-11" x1="54.71" y1="8.81" x2="53.95" y2="7.48" xlink:href="#linear-gradient"/>
    <linearGradient id="linear-gradient-12" x1="58.42" y1="12.51" x2="57.66" y2="11.19" xlink:href="#linear-gradient"/>
    <linearGradient id="linear-gradient-13" x1="51.01" y1="31.04" x2="50.24" y2="29.72" xlink:href="#linear-gradient"/>
    <linearGradient id="linear-gradient-14" x1="63.51" y1="24.56" x2="62.75" y2="23.23" xlink:href="#linear-gradient"/>
    <linearGradient id="linear-gradient-15" x1="69.93" y1="22.66" x2="67.52" y2="18.49" xlink:href="#linear-gradient"/>
    <linearGradient id="linear-gradient-16" x1="67.41" y1="27.51" x2="65.88" y2="24.86" xlink:href="#linear-gradient"/>
    <linearGradient id="linear-gradient-17" x1="65.7" y1="33.55" x2="63.47" y2="29.68" xlink:href="#linear-gradient"/>
    <linearGradient id="linear-gradient-18" x1="45.47" y1="39.89" x2="43.54" y2="36.55" xlink:href="#linear-gradient"/>
    <linearGradient id="linear-gradient-19" x1="39.55" y1="39.63" x2="37.16" y2="35.5" xlink:href="#linear-gradient"/>
    <linearGradient id="linear-gradient-20" x1="36.74" y1="44.46" x2="35.21" y2="41.81" xlink:href="#linear-gradient"/>
    <linearGradient id="linear-gradient-21" x1="74.04" y1="29.91" x2="72.51" y2="27.26" xlink:href="#linear-gradient"/>
    <linearGradient id="linear-gradient-22" x1="62.31" y1="39.55" x2="60.78" y2="36.9" xlink:href="#linear-gradient"/>
    <linearGradient id="linear-gradient-23" x1="44.47" y1="46.59" x2="42.24" y2="42.73" xlink:href="#linear-gradient"/>
    <linearGradient id="linear-gradient-24" x1="51.1" y1="47.7" x2="49.57" y2="45.05" xlink:href="#linear-gradient"/>
    <linearGradient id="linear-gradient-25" x1="58.42" y1="24.56" x2="57.66" y2="23.23" xlink:href="#linear-gradient"/>
    <linearGradient id="linear-gradient-26" x1="51.28" y1="36.31" x2="49.97" y2="34.04" xlink:href="#linear-gradient"/>
    <linearGradient id="linear-gradient-27" x1="36.19" y1="47.72" x2="35.42" y2="46.39" xlink:href="#linear-gradient"/>
    <linearGradient id="linear-gradient-28" x1="70" y1="32.89" x2="69.24" y2="31.57" xlink:href="#linear-gradient"/>
    <linearGradient id="linear-gradient-29" x1="66.76" y1="39.84" x2="65.99" y2="38.52" xlink:href="#linear-gradient"/>
    <linearGradient id="linear-gradient-30" x1="57.96" y1="43.55" x2="57.19" y2="42.22" xlink:href="#linear-gradient"/>
    <linearGradient id="linear-gradient-31" x1="57.49" y1="37.06" x2="56.73" y2="35.74" xlink:href="#linear-gradient"/>
    <linearGradient id="linear-gradient-32" x1="45.91" y1="48.64" x2="45.15" y2="47.32" xlink:href="#linear-gradient"/>
    <linearGradient id="linear-gradient-33" x1="40.82" y1="50.96" x2="40.05" y2="49.63" xlink:href="#linear-gradient"/>
    <linearGradient id="linear-gradient-34" x1="33" y1="46.02" x2="32.06" y2="44.4" xlink:href="#linear-gradient"/>
    <linearGradient id="linear-gradient-35" x1="35.4" y1="40.86" x2="34.63" y2="39.54" xlink:href="#linear-gradient"/>
    <linearGradient id="linear-gradient-36" x1="36.32" y1="51.52" x2="35.56" y2="50.19" xlink:href="#linear-gradient"/>
    <linearGradient id="linear-gradient-37" x1="54.71" y1="47.25" x2="53.95" y2="45.93" xlink:href="#linear-gradient"/>
    <linearGradient id="linear-gradient-38" x1="73.24" y1="25.48" x2="72.48" y2="24.16" xlink:href="#linear-gradient"/>
    <linearGradient id="linear-gradient-39" x1="63.13" y1="44.46" x2="61.61" y2="41.81" xlink:href="#linear-gradient"/>
    <linearGradient id="linear-gradient-40" x1="73.62" y1="36.5" x2="72.1" y2="33.85" xlink:href="#linear-gradient"/>
    <linearGradient id="linear-gradient-41" x1="33.13" y1="51.59" x2="31.61" y2="48.95" xlink:href="#linear-gradient"/>
    <linearGradient id="linear-gradient-42" x1="70.97" y1="41.52" x2="69.44" y2="38.88" xlink:href="#linear-gradient"/>
    <linearGradient id="linear-gradient-43" x1="79.23" y1="38.38" x2="76.82" y2="34.21" xlink:href="#linear-gradient"/>
  </defs>
  <title>AFoutput1</title>
  <g>
    <g>
      <path class="cls-1" d="M91.56,403.48a29.53,29.53,0,1,1-59.06,0c0-1.23.18-3.43,3.08-10.33,0,0,6.48-15.44,26.45-41.78h0S91.56,390.74,91.56,403.48Z" transform="translate(-3.42 -351.37)"/>
      <circle class="cls-2" cx="43.98" cy="29.9" r="4.75"/>
      <circle class="cls-3" cx="58.61" cy="3.26" r="3.26"/>
      <circle class="cls-4" cx="52.8" cy="14.91" r="4.07"/>
      <circle class="cls-5" cx="56.87" cy="29.9" r="4.68"/>
      <circle class="cls-6" cx="61.86" cy="18.16" r="3.26"/>
      <circle class="cls-7" cx="52.8" cy="40.82" r="3.26"/>
      <circle class="cls-8" cx="61.55" cy="10.84" r="2.35"/>
      <circle class="cls-9" cx="52.8" cy="23.63" r="1.53"/>
      <circle class="cls-10" cx="48.74" cy="21.17" r="1.53"/>
      <circle class="cls-11" cx="54.33" cy="8.14" r="0.76"/>
      <circle class="cls-12" cx="58.04" cy="11.85" r="0.76"/>
      <circle class="cls-13" cx="50.16" cy="30.38" r="0.76"/>
      <circle class="cls-14" cx="50.63" cy="30.38" r="0.76"/>
      <circle class="cls-15" cx="63.13" cy="23.89" r="0.76"/>
      <circle class="cls-16" cx="68.72" cy="20.57" r="2.41"/>
      <circle class="cls-17" cx="66.65" cy="26.18" r="1.53"/>
      <circle class="cls-18" cx="64.59" cy="31.62" r="2.23"/>
      <circle class="cls-19" cx="44.51" cy="38.22" r="1.93"/>
      <circle class="cls-20" cx="38.36" cy="37.56" r="2.39"/>
      <circle class="cls-21" cx="35.97" cy="43.14" r="1.53"/>
      <circle class="cls-22" cx="73.28" cy="28.58" r="1.53"/>
      <circle class="cls-23" cx="61.55" cy="38.22" r="1.53"/>
      <circle class="cls-24" cx="43.36" cy="44.66" r="2.23"/>
      <circle class="cls-25" cx="50.33" cy="46.38" r="1.53"/>
      <circle class="cls-26" cx="58.04" cy="23.89" r="0.76"/>
      <circle class="cls-27" cx="50.63" cy="35.18" r="1.31"/>
      <circle class="cls-28" cx="35.8" cy="47.05" r="0.76"/>
      <circle class="cls-29" cx="69.62" cy="32.23" r="0.76"/>
      <circle class="cls-30" cx="66.38" cy="39.18" r="0.76"/>
      <circle class="cls-31" cx="57.57" cy="42.89" r="0.76"/>
      <circle class="cls-32" cx="57.11" cy="36.4" r="0.76"/>
      <circle class="cls-33" cx="45.53" cy="47.98" r="0.76"/>
      <circle class="cls-34" cx="40.44" cy="50.3" r="0.76"/>
      <circle class="cls-35" cx="32.53" cy="45.21" r="0.94"/>
      <circle class="cls-36" cx="35.01" cy="40.2" r="0.76"/>
      <circle class="cls-37" cx="35.94" cy="50.85" r="0.76"/>
      <circle class="cls-38" cx="54.33" cy="46.59" r="0.76"/>
      <circle class="cls-39" cx="72.86" cy="24.82" r="0.76"/>
      <circle class="cls-40" cx="62.37" cy="43.14" r="1.53"/>
      <circle class="cls-41" cx="72.86" cy="35.18" r="1.53"/>
      <circle class="cls-42" cx="32.37" cy="50.27" r="1.53"/>
      <circle class="cls-43" cx="70.2" cy="40.2" r="1.53"/>
      <circle class="cls-44" cx="78.02" cy="36.3" r="2.41"/>
      <path class="cls-45" d="M32.5,403.48" transform="translate(-3.42 -351.37)"/>
    </g>
    <path class="cls-45" d="M90.27,393c-5,1.65-12.51,5.22-20.2,7.14-9.09,2.27-18.82,5.84-29.15,6.76-4.55.41-10.47,1.18-14.92-.06-5-1.39-7.2-4.68-4.51-9.62,2.85-5.23,8.57-8.52,13.69-11.23-20.29,8.81-33.4,18.6-31.59,24.67C6,418.8,40.37,412.41,73,402.22c8.74-2.73,18.39-8,24.54-11.67C95,390.55,92.38,392.28,90.27,393Z" transform="translate(-3.42 -351.37)"/>
    <path class="cls-45" d="M125.54,375.28c-2.71-6.68-28.26-6.38-49.28-.85,2.23-.25,4.94-0.64,7.73-0.92,7-1.29,17.77-2.83,21.88,4.14,1.76,3,.89,6.58-1.06,9.31a11,11,0,0,1-4.4,4.81,2.76,2.76,0,0,1-.4.18,29.24,29.24,0,0,1-6.29,4.62,72,72,0,0,1-11.78,5.19l0,0C103.79,394.63,128.75,383.19,125.54,375.28Z" transform="translate(-3.42 -351.37)"/>
    <g>
      <path class="cls-46" d="M156.9,382.4H138.79l-1.23,3q-2.74,6.57-2.74,8.58a3.83,3.83,0,0,0,1.46,3.25,6,6,0,0,0,3.74,1.11V400H125.86v-1.62a7.64,7.64,0,0,0,4.71-2.23q1.55-1.74,3.73-7.33,0.18-.53,1.69-4.08l13.85-33.08h1.37l15.93,37.86,2.18,5a6.64,6.64,0,0,0,2,2.65,7.24,7.24,0,0,0,3.74,1.21V400H156.3v-1.62a14,14,0,0,0,4.66-.51,2,2,0,0,0,1.21-2,20.51,20.51,0,0,0-1.62-4.61Zm-0.6-1.58-8.44-20.32-8.4,20.32H156.3Z" transform="translate(-3.42 -351.37)"/>
      <path class="cls-46" d="M205.17,400.68a33.65,33.65,0,0,1-3.55.18q-11.5,0-18.76-6.84t-7.26-18.19q0-11,7.37-17.7t18.44-6.7a30.83,30.83,0,0,1,13.18,3,20.82,20.82,0,0,1,9.63,8.79,25.85,25.85,0,0,1,3.27,12.88,25.4,25.4,0,0,1-4.27,14.55,22.42,22.42,0,0,1-12.36,8.86l-10.51,5.8q1.09-.11,1.9-0.11a55.9,55.9,0,0,1,18,3.52q7.8,2.71,12.38,2.71,6.33,0,7.52-4.78h1.48a12.05,12.05,0,0,1-4,7.88,13,13,0,0,1-8.89,3,17.6,17.6,0,0,1-6.52-1.16,48.9,48.9,0,0,1-7.65-4.15q-8.44-5.38-14.06-5.38a10.06,10.06,0,0,0-6.54,2.67q-2.11,1.76-2.92,1.76a1.07,1.07,0,0,1-1.27-1.16q0-.88,1.51-1.81t5.7-3q0.88-.42,1.76-0.91Zm-21.52-24.61q0,11.5,4.59,17.26T202,399.1q8.05,0,12.73-5.77t4.68-17.19q0-11.11-4.61-17t-13.36-5.92q-8.61,0-13.2,5.78T183.65,376.07Z" transform="translate(-3.42 -351.37)"/>
      <path class="cls-46" d="M266.52,352.31h15.93v1.62a8.63,8.63,0,0,0-4.73,1.42,4.89,4.89,0,0,0-1.92,2.72,31.36,31.36,0,0,0-.35,5.87V379.8a62.34,62.34,0,0,1-.47,9,12.53,12.53,0,0,1-2.74,5.8,15.42,15.42,0,0,1-6.38,4.54,24.86,24.86,0,0,1-9.49,1.69,24.32,24.32,0,0,1-10.78-2.16,13.76,13.76,0,0,1-6.29-5.59,19.14,19.14,0,0,1-1.88-9.19l0-4.89V364.19a48.47,48.47,0,0,0-.33-7.35,3.22,3.22,0,0,0-1.41-2.29q-1.07-.63-4.69-0.63h-1.09v-1.62h21.76v1.62h-0.95a11.61,11.61,0,0,0-4.61.58,3.06,3.06,0,0,0-1.46,2.16,44.77,44.77,0,0,0-.37,7.52v15a58.41,58.41,0,0,0,.72,11.07,9.69,9.69,0,0,0,4.06,5.71q3.34,2.44,8.89,2.44a18.81,18.81,0,0,0,7.93-1.63,12.92,12.92,0,0,0,5.31-4.08,11.6,11.6,0,0,0,2.13-5,61,61,0,0,0,.39-8.14V363.31a23.8,23.8,0,0,0-.46-5.66,4.36,4.36,0,0,0-2-2.57,10.58,10.58,0,0,0-4.78-1.16v-1.62Z" transform="translate(-3.42 -351.37)"/>
      <path class="cls-46" d="M310.39,382.4H292.29l-1.23,3q-2.74,6.57-2.74,8.58a3.83,3.83,0,0,0,1.46,3.25,6,6,0,0,0,3.74,1.11V400H279.35v-1.62a7.64,7.64,0,0,0,4.71-2.23q1.55-1.74,3.73-7.33,0.18-.53,1.69-4.08l13.85-33.08h1.37l15.93,37.86,2.18,5a6.64,6.64,0,0,0,2,2.65,7.25,7.25,0,0,0,3.74,1.21V400H309.79v-1.62a14,14,0,0,0,4.66-.51,2,2,0,0,0,1.21-2,20.48,20.48,0,0,0-1.62-4.61Zm-0.6-1.58-8.44-20.32L293,380.82h16.84Z" transform="translate(-3.42 -351.37)"/>
      <path class="cls-45" d="M328.86,398.68q4.14-.44,5.14-1.51t1-5.6V361.25q0-3.73-1.13-4.87t-5-1.42v-1.3h37.29l0.24,10h-1.95q-0.72-4.8-2.7-6.07t-7.83-1.28h-9.6a2.37,2.37,0,0,0-1.8.48,3.14,3.14,0,0,0-.39,1.88v15.62h10.15q4.48,0,5.71-1.33t2-5.37h1.64v16.17H360q-0.79-4.07-2-5.38t-5.67-1.32H342.12v15.31q0,3.84,1.18,4.91t5.14,1.38V400H328.86v-1.3Z" transform="translate(-3.42 -351.37)"/>
      <path class="cls-45" d="M367.79,398.68q4-.37,5-1.56t1-5.54V361.25q0-3.69-1.11-4.84T367.79,355v-1.3h19.38a28.57,28.57,0,0,1,10.08,1.54q7.66,2.9,7.66,10.68,0,5.22-3.4,8a18.71,18.71,0,0,1-9.25,3.69l14.42,17.77a9.69,9.69,0,0,0,2.67,2.37,8.71,8.71,0,0,0,3.42.95V400H401.5L384,378.41l-3.07.17v13.8q0,3.88,1.18,4.92t5.14,1.38V400H367.79v-1.3Zm23.93-24.27q5.57-2.29,5.57-8.6,0-6.07-5-8.29a17.53,17.53,0,0,0-7.08-1.19,8.9,8.9,0,0,0-3.64.43,2.26,2.26,0,0,0-.67,2V376Q388.47,375.71,391.72,374.41Z" transform="translate(-3.42 -351.37)"/>
      <path class="cls-45" d="M414.48,398.68q3.86-.41,5-1.38t1.15-4.91V361.25q0-3.73-1.13-4.87t-5-1.42v-1.3h37.19l0.24,10h-1.78q-0.89-4.63-2.67-6t-7.93-1.36H430a2.43,2.43,0,0,0-1.9.5,3.39,3.39,0,0,0-.36,1.86v15.62h10.8q4.48,0,5.71-1.33t2-5.37h1.64v16.17h-1.64q-0.79-4.07-2-5.38t-5.67-1.32h-10.8v17.33q0,2.09,1.32,2.46a44.47,44.47,0,0,0,7.89.38q7.12,0,10.51-1.56t6.09-7.54h1.95L452.32,400H414.48v-1.3Z" transform="translate(-3.42 -351.37)"/>
      <path class="cls-45" d="M461,385.9a25.25,25.25,0,0,0,4.16,7.52,13,13,0,0,0,10.34,4.89,8.53,8.53,0,0,0,5.78-2.12,7.41,7.41,0,0,0,2.44-5.91,8.26,8.26,0,0,0-2.46-5.95,43.41,43.41,0,0,0-6.75-4.82l-6-3.73a21.42,21.42,0,0,1-4.3-3.45,10.72,10.72,0,0,1-3-7.31,12,12,0,0,1,3.52-8.82,12.61,12.61,0,0,1,9.33-3.52,18,18,0,0,1,5.76,1.18A24.52,24.52,0,0,0,483.7,355a2.2,2.2,0,0,0,1.79-.62,4.44,4.44,0,0,0,.77-1.74h1.44l1.54,14.9h-1.67q-1.71-6.73-5.49-9.4a12.93,12.93,0,0,0-7.47-2.67,7.82,7.82,0,0,0-5,1.69,5.66,5.66,0,0,0-2.14,4.7,6.86,6.86,0,0,0,1.64,4.61,21.06,21.06,0,0,0,5.09,4.07l6.15,3.79q5.77,3.56,8.14,6.53a11.26,11.26,0,0,1,2.33,7.11,11.8,11.8,0,0,1-4.15,9.19A15.38,15.38,0,0,1,476,400.9a20.62,20.62,0,0,1-6.78-1.23,25.7,25.7,0,0,0-4.05-1.23,1.74,1.74,0,0,0-1.66.75,4.74,4.74,0,0,0-.56,1.61h-1.54l-2.08-14.9H461Z" transform="translate(-3.42 -351.37)"/>
      <path class="cls-45" d="M529.09,354a38.34,38.34,0,0,0,4.48,1.13,3.53,3.53,0,0,0,1.88-.55,2.86,2.86,0,0,0,1.23-1.71h1.47l0.65,15.72h-1.61a22.67,22.67,0,0,0-3.66-7.55,14.05,14.05,0,0,0-11.59-5.4,14.72,14.72,0,0,0-12,5.81q-4.66,5.81-4.67,16,0,9.37,4.91,15A15.81,15.81,0,0,0,522.59,398a20,20,0,0,0,10-2.6,30.07,30.07,0,0,0,5.78-4.44l1.3,1.3a23.47,23.47,0,0,1-5.78,5.16,23.21,23.21,0,0,1-12.75,3.76q-11.28,0-17.91-7.21-6.12-6.67-6.12-16.65a24.23,24.23,0,0,1,6.46-17.16q6.8-7.28,17.71-7.28A28.64,28.64,0,0,1,529.09,354Z" transform="translate(-3.42 -351.37)"/>
      <path class="cls-45" d="M551.2,358.86a23.51,23.51,0,0,1,31.82,0q7,6.73,7,17.94,0,11.38-7.25,18.12a22.26,22.26,0,0,1-15.69,6,21.86,21.86,0,0,1-16.34-6.67q-6.6-6.8-6.6-17.47Q544.16,365.63,551.2,358.86Zm5.23,34.3a13.33,13.33,0,0,0,10.68,5.28,13.47,13.47,0,0,0,10.59-5.14q4.4-5.14,4.4-16.46t-4.45-16.54a13.58,13.58,0,0,0-10.54-5.09,13.35,13.35,0,0,0-10.66,5.28q-4.36,5.28-4.36,16.35T556.44,393.16Z" transform="translate(-3.42 -351.37)"/>
    </g>
    <g>
      <path class="cls-47" d="M166.81,418.5a3.71,3.71,0,0,1-.66,2.09,5.34,5.34,0,0,1-2,1.69,9.42,9.42,0,0,1-3.06,1q3.72,1.19,3.72,4.38a4.32,4.32,0,0,1-.86,2.64,6.53,6.53,0,0,1-2.05,1.83,6.19,6.19,0,0,1-1.7.62,11.9,11.9,0,0,1-1.72.24q-0.8,0-1.77,0h-8.12l0.4-1.26a1.67,1.67,0,0,0,1.36-.52,4.52,4.52,0,0,0,.75-1.56l3.55-11.59a3.9,3.9,0,0,0,.22-1.05q0-1.3-1.6-1.3l0.37-1.26h7.45a13.23,13.23,0,0,1,2,.13,4.62,4.62,0,0,1,1.62.59,4.34,4.34,0,0,1,1.47,1.37A3.42,3.42,0,0,1,166.81,418.5Zm-5.76,7.67a1.94,1.94,0,0,0-.69-1.83,3.66,3.66,0,0,0-1.78-.38h-1.93L155,429.24a3.76,3.76,0,0,0-.22,1.18,1.14,1.14,0,0,0,.46.85,2.51,2.51,0,0,0,1.63.4,4.24,4.24,0,0,0,1.76-.39,3.56,3.56,0,0,0,1.54-1.8,8.44,8.44,0,0,0,.59-1.59A6.53,6.53,0,0,0,161.05,426.17Zm2.12-8.5a1.48,1.48,0,0,0-.74-1.53,5.89,5.89,0,0,0-2.2-.31h-1.09L157,422.62h1.26a5.59,5.59,0,0,0,2-.33,3.94,3.94,0,0,0,1.27-.71,4.76,4.76,0,0,0,1.13-1.83A6,6,0,0,0,163.17,417.67Z" transform="translate(-3.42 -351.37)"/>
      <path class="cls-47" d="M178.93,423.68a3.13,3.13,0,0,1-.34,1.29,5.15,5.15,0,0,1-1.25,1.55,8.08,8.08,0,0,1-2.6,1.45,16.69,16.69,0,0,1-4.25.86l-0.33,0a5.16,5.16,0,0,0-.11,1,1.89,1.89,0,0,0,.49,1.46,2,2,0,0,0,1.42.44,5.24,5.24,0,0,0,3.92-2.21h1.45a10.36,10.36,0,0,1-2.57,2.57,6.69,6.69,0,0,1-4.09,1.27,4.53,4.53,0,0,1-2.81-.88,3,3,0,0,1-1.17-2.59,7.92,7.92,0,0,1,1.16-4.07,9.22,9.22,0,0,1,3.17-3.21,8.19,8.19,0,0,1,4.38-1.24,4.44,4.44,0,0,1,2.71.64A2,2,0,0,1,178.93,423.68Zm-2.88-.05a1.26,1.26,0,0,0-.31-0.83,1.06,1.06,0,0,0-.86-0.38,2.69,2.69,0,0,0-1.76.66,6.17,6.17,0,0,0-1.35,1.57,10.93,10.93,0,0,0-.9,1.83l-0.43,1.15a9.29,9.29,0,0,0,4.19-1.57A3.12,3.12,0,0,0,176,423.63Z" transform="translate(-3.42 -351.37)"/>
      <path class="cls-47" d="M189,421.81l-0.38,1.26h-2.72l-2.06,6.75a4,4,0,0,0-.23,1.05,0.82,0.82,0,0,0,.19.53,0.59,0.59,0,0,0,.48.24,1.75,1.75,0,0,0,1.39-.77,11.47,11.47,0,0,0,1.08-1.67H188a8.74,8.74,0,0,1-1.73,2.65,5.29,5.29,0,0,1-1.8,1.26,4.51,4.51,0,0,1-1.54.31,2.42,2.42,0,0,1-1.83-.68,2.52,2.52,0,0,1-.66-1.82,7.74,7.74,0,0,1,.41-2.12l1.78-5.71h-2.56l0.4-1.26H183l1.26-4.17h3.25l-1.26,4.17H189Z" transform="translate(-3.42 -351.37)"/>
      <path class="cls-47" d="M198.28,421.81l-0.38,1.26h-2.72l-2.06,6.75a4,4,0,0,0-.23,1.05,0.82,0.82,0,0,0,.19.53,0.59,0.59,0,0,0,.48.24,1.75,1.75,0,0,0,1.39-.77,11.47,11.47,0,0,0,1.08-1.67h1.29a8.74,8.74,0,0,1-1.73,2.65,5.29,5.29,0,0,1-1.8,1.26,4.51,4.51,0,0,1-1.54.31,2.42,2.42,0,0,1-1.83-.68,2.52,2.52,0,0,1-.66-1.82,7.74,7.74,0,0,1,.41-2.12l1.78-5.71h-2.56l0.4-1.26h2.54l1.26-4.17h3.25l-1.26,4.17h2.71Z" transform="translate(-3.42 -351.37)"/>
      <path class="cls-47" d="M210.72,423.68a3.13,3.13,0,0,1-.34,1.29,5.15,5.15,0,0,1-1.25,1.55,8.08,8.08,0,0,1-2.6,1.45,16.69,16.69,0,0,1-4.25.86l-0.33,0a5.16,5.16,0,0,0-.11,1,1.89,1.89,0,0,0,.49,1.46,2,2,0,0,0,1.42.44,5.24,5.24,0,0,0,3.92-2.21h1.45a10.36,10.36,0,0,1-2.57,2.57,6.69,6.69,0,0,1-4.09,1.27,4.53,4.53,0,0,1-2.81-.88,3,3,0,0,1-1.17-2.59,7.92,7.92,0,0,1,1.16-4.07,9.22,9.22,0,0,1,3.17-3.21,8.19,8.19,0,0,1,4.38-1.24,4.44,4.44,0,0,1,2.71.64A2,2,0,0,1,210.72,423.68Zm-2.88-.05a1.26,1.26,0,0,0-.31-0.83,1.06,1.06,0,0,0-.86-0.38,2.69,2.69,0,0,0-1.76.66,6.17,6.17,0,0,0-1.35,1.57,10.93,10.93,0,0,0-.9,1.83l-0.43,1.15a9.29,9.29,0,0,0,4.19-1.57A3.12,3.12,0,0,0,207.84,423.63Z" transform="translate(-3.42 -351.37)"/>
      <path class="cls-47" d="M223.86,423.21a2.54,2.54,0,0,1-.48,1.52,1.43,1.43,0,0,1-1.2.66,1.61,1.61,0,0,1-1.2-.72,0.88,0.88,0,0,0-.64-0.42,1.75,1.75,0,0,0-1,.69,10.63,10.63,0,0,0-1.32,1.84,25.58,25.58,0,0,0-1.33,2.63,27.35,27.35,0,0,0-1.13,3l-0.16.56h-3.21l2.15-7.67a6.31,6.31,0,0,0,.34-1.54,0.61,0.61,0,0,0-.1-0.32,0.33,0.33,0,0,0-.3-0.16,1.46,1.46,0,0,0-1.08.75,7.52,7.52,0,0,0-.82,1.36h-1.26a10.13,10.13,0,0,1,1.62-2.45,5.19,5.19,0,0,1,1.6-1.21,3.51,3.51,0,0,1,1.4-.34,1.4,1.4,0,0,1,1.42.68,3.14,3.14,0,0,1,.32,1.34,14.83,14.83,0,0,1-.77,3.75q0.78-1.34,1.28-2.15a16.81,16.81,0,0,1,1.19-1.67,7.28,7.28,0,0,1,1.46-1.41,2.62,2.62,0,0,1,1.51-.55,1.47,1.47,0,0,1,1.39.59A2.38,2.38,0,0,1,223.86,423.21Z" transform="translate(-3.42 -351.37)"/>
      <path class="cls-47" d="M251.09,414.58l-1.37,6.33h-1.31c0-.07,0-0.14,0-0.19s0-.12,0-0.21a5.8,5.8,0,0,0-.79-3.31,3.66,3.66,0,0,0-1.74-1.48,5.2,5.2,0,0,0-1.68-.33,4.68,4.68,0,0,0-3,1.13,10,10,0,0,0-2.43,3,17.25,17.25,0,0,0-1.6,4,15.3,15.3,0,0,0-.57,3.94,6.4,6.4,0,0,0,.38,2.26,3.69,3.69,0,0,0,1.18,1.65,3.12,3.12,0,0,0,2,.63,5.68,5.68,0,0,0,2.43-.62,8.35,8.35,0,0,0,2.43-1.79,8.68,8.68,0,0,0,1.78-2.8h1.31l-1.82,6.14h-1.15a7.09,7.09,0,0,0,.07-0.94,6.6,6.6,0,0,0-.07-0.93,7.73,7.73,0,0,1-2.34,1.67,6.86,6.86,0,0,1-3,.68,7,7,0,0,1-3.64-1,6.88,6.88,0,0,1-2.57-2.63,7.34,7.34,0,0,1-.93-3.64,11.27,11.27,0,0,1,1-4.61,13,13,0,0,1,2.59-3.86,12.31,12.31,0,0,1,3.57-2.58,9,9,0,0,1,3.87-.92,6.16,6.16,0,0,1,2.41.44,6,6,0,0,1,1.61.94,8.43,8.43,0,0,1,1,1.05,5.26,5.26,0,0,0,1.12-2h1.26Z" transform="translate(-3.42 -351.37)"/>
      <path class="cls-47" d="M258.92,414.14l-4.79,15.68a7.13,7.13,0,0,0-.37,1.45,0.57,0.57,0,0,0,.11.37,0.35,0.35,0,0,0,.29.14,1.72,1.72,0,0,0,1-.64,5,5,0,0,0,1-1.46h1.29a12.17,12.17,0,0,1-1.79,2.5,3.63,3.63,0,0,1-2.8,1.23,2.35,2.35,0,0,1-1.65-.57,1.79,1.79,0,0,1-.62-1.37,8.43,8.43,0,0,1,.42-2.06l3.5-11.4a6.62,6.62,0,0,0,.34-1.49,0.6,0.6,0,0,0-.39-0.63,4.66,4.66,0,0,0-1.46-.15l0.33-1.26h1.46q0.94,0,1.72-.07a8.62,8.62,0,0,0,1.49-.26h0.93Z" transform="translate(-3.42 -351.37)"/>
      <path class="cls-47" d="M271.15,423.68a3.13,3.13,0,0,1-.34,1.29,5.13,5.13,0,0,1-1.25,1.55A8.08,8.08,0,0,1,267,428a16.69,16.69,0,0,1-4.25.86l-0.33,0a5.16,5.16,0,0,0-.11,1,1.89,1.89,0,0,0,.49,1.46,2,2,0,0,0,1.42.44,5.24,5.24,0,0,0,3.92-2.21h1.45a10.36,10.36,0,0,1-2.57,2.57,6.69,6.69,0,0,1-4.09,1.27,4.53,4.53,0,0,1-2.81-.88,3,3,0,0,1-1.17-2.59,7.92,7.92,0,0,1,1.16-4.07,9.22,9.22,0,0,1,3.17-3.21,8.19,8.19,0,0,1,4.38-1.24,4.44,4.44,0,0,1,2.71.64A2,2,0,0,1,271.15,423.68Zm-2.88-.05a1.26,1.26,0,0,0-.31-0.83,1.06,1.06,0,0,0-.86-0.38,2.69,2.69,0,0,0-1.76.66,6.17,6.17,0,0,0-1.35,1.57,10.93,10.93,0,0,0-.9,1.83l-0.43,1.15a9.29,9.29,0,0,0,4.19-1.57A3.12,3.12,0,0,0,268.27,423.63Z" transform="translate(-3.42 -351.37)"/>
      <path class="cls-47" d="M286,429.73a9.75,9.75,0,0,1-.89,1.48,6.73,6.73,0,0,1-1.09,1.18,4.87,4.87,0,0,1-1.21.77,3.19,3.19,0,0,1-1.26.26,1.81,1.81,0,0,1-1.84-.87,4.89,4.89,0,0,1-.4-2.07,14.19,14.19,0,0,1-2.16,2.12,3.89,3.89,0,0,1-2.43.82,2,2,0,0,1-1.34-.44,2.59,2.59,0,0,1-.79-1.2,5,5,0,0,1-.25-1.61,9.34,9.34,0,0,1,.94-3.9,10,10,0,0,1,2.56-3.45,5.26,5.26,0,0,1,3.49-1.39,2.34,2.34,0,0,1,1.35.34,1.86,1.86,0,0,1,.68.77,6.46,6.46,0,0,1,.32.94l0.51-1.71h3l-2.54,8.34a6.05,6.05,0,0,0-.27,1.09,0.42,0.42,0,0,0,.12.3,0.36,0.36,0,0,0,.27.12q0.89,0,1.9-1.89H286Zm-5.1-5.46a2.43,2.43,0,0,0-.25-1.15,1,1,0,0,0-.92-0.48,2.65,2.65,0,0,0-2,1.18,9.52,9.52,0,0,0-1.56,2.86,8.74,8.74,0,0,0-.59,2.82q0,1.65,1,1.65a2.29,2.29,0,0,0,1.48-.66,7,7,0,0,0,1.4-1.77,11.09,11.09,0,0,0,1-2.32A7.33,7.33,0,0,0,280.93,424.27Z" transform="translate(-3.42 -351.37)"/>
      <path class="cls-47" d="M302.39,429.43a10.72,10.72,0,0,1-1.06,1.59,7,7,0,0,1-1.69,1.52,3.89,3.89,0,0,1-2.17.66,2.41,2.41,0,0,1-1.6-.49,1.61,1.61,0,0,1-.59-1.3,6.07,6.07,0,0,1,.34-1.71l1-3.29a7.52,7.52,0,0,0,.42-1.85,0.89,0.89,0,0,0-.18-0.55,0.6,0.6,0,0,0-.51-0.25,2.84,2.84,0,0,0-1.8,1.24,17.84,17.84,0,0,0-2.17,3.36,29.83,29.83,0,0,0-1.91,4.63h-3.25l2.47-8a10.09,10.09,0,0,0,.33-1.39,0.77,0.77,0,0,0-.08-0.33,0.31,0.31,0,0,0-.31-0.17,1.32,1.32,0,0,0-1,.67,7.63,7.63,0,0,0-.83,1.46h-1.15a7.67,7.67,0,0,1,1.6-2.64,3.57,3.57,0,0,1,2.75-1.18,2.06,2.06,0,0,1,1.59.57,1.78,1.78,0,0,1,.53,1.22,5.86,5.86,0,0,1-.15,1.08q-0.15.73-.34,1.35L292.12,427a26.36,26.36,0,0,1,3.19-4.12,4.56,4.56,0,0,1,3.31-1.51,1.83,1.83,0,0,1,1.53.61,2.09,2.09,0,0,1,.48,1.32,7.87,7.87,0,0,1-.33,1.65l-1.44,4.76a5.55,5.55,0,0,0-.25,1.24,0.44,0.44,0,0,0,.09.26,0.28,0.28,0,0,0,.24.12,1.67,1.67,0,0,0,1-.54,5.85,5.85,0,0,0,1.1-1.42h1.37Z" transform="translate(-3.42 -351.37)"/>
      <path class="cls-47" d="M310.88,429.73a9.36,9.36,0,0,1-1.67,2.43,3.69,3.69,0,0,1-2.84,1.24,2.36,2.36,0,0,1-1.72-.57,1.83,1.83,0,0,1-.57-1.35,7.06,7.06,0,0,1,.51-2.2l1.76-4.83a3.09,3.09,0,0,0,.26-0.89,0.42,0.42,0,0,0-.4-0.4,1.47,1.47,0,0,0-1,.72,7.61,7.61,0,0,0-.83,1.3h-1.2a7.07,7.07,0,0,1,2.1-2.8,4.23,4.23,0,0,1,2.58-1,2.43,2.43,0,0,1,1.5.44,1.4,1.4,0,0,1,.59,1.18,4.42,4.42,0,0,1-.3,1.57l-2.13,5.73a2.9,2.9,0,0,0-.22,1,0.5,0.5,0,0,0,.13.32,0.37,0.37,0,0,0,.28.16,1.24,1.24,0,0,0,.85-0.44,7.87,7.87,0,0,0,1.09-1.61h1.26Zm1-13.82a1.73,1.73,0,0,1-.53,1.26,1.69,1.69,0,0,1-1.24.53,1.71,1.71,0,0,1-1.28-.53,1.75,1.75,0,0,1-.51-1.26,1.79,1.79,0,0,1,2.69-1.52,1.79,1.79,0,0,1,.64.63A1.71,1.71,0,0,1,311.89,415.91Z" transform="translate(-3.42 -351.37)"/>
      <path class="cls-47" d="M327.48,429.43a10.72,10.72,0,0,1-1.06,1.59,7,7,0,0,1-1.69,1.52,3.89,3.89,0,0,1-2.17.66,2.41,2.41,0,0,1-1.6-.49,1.61,1.61,0,0,1-.59-1.3,6.07,6.07,0,0,1,.34-1.71l1-3.29a7.52,7.52,0,0,0,.42-1.85,0.89,0.89,0,0,0-.18-0.55,0.6,0.6,0,0,0-.51-0.25,2.84,2.84,0,0,0-1.8,1.24,17.84,17.84,0,0,0-2.17,3.36,29.83,29.83,0,0,0-1.91,4.63H312.3l2.47-8a10.09,10.09,0,0,0,.33-1.39,0.77,0.77,0,0,0-.08-0.33,0.31,0.31,0,0,0-.31-0.17,1.32,1.32,0,0,0-1,.67,7.63,7.63,0,0,0-.83,1.46h-1.15a7.67,7.67,0,0,1,1.6-2.64,3.57,3.57,0,0,1,2.75-1.18,2.06,2.06,0,0,1,1.59.57,1.78,1.78,0,0,1,.53,1.22,5.86,5.86,0,0,1-.15,1.08q-0.15.73-.34,1.35L317.21,427a26.36,26.36,0,0,1,3.19-4.12,4.56,4.56,0,0,1,3.31-1.51,1.83,1.83,0,0,1,1.53.61,2.09,2.09,0,0,1,.48,1.32,7.87,7.87,0,0,1-.33,1.65L324,429.75a5.55,5.55,0,0,0-.25,1.24,0.44,0.44,0,0,0,.09.26,0.28,0.28,0,0,0,.24.12,1.67,1.67,0,0,0,1-.54,5.85,5.85,0,0,0,1.1-1.42h1.37Z" transform="translate(-3.42 -351.37)"/>
      <path class="cls-47" d="M341.88,422.48a0.71,0.71,0,0,1-.29.65,1.07,1.07,0,0,1-.57.18,1.24,1.24,0,0,1-.71-0.25,0.7,0.7,0,0,0-.41-0.16,0.59,0.59,0,0,0-.53.38,4.73,4.73,0,0,1,.43.86,3.15,3.15,0,0,1,.16,1.08,4,4,0,0,1-.25,1.29,4,4,0,0,1-.88,1.4,4.85,4.85,0,0,1-1.85,1.15,8.43,8.43,0,0,1-3,.46,5.73,5.73,0,0,0-2.29.3,1,1,0,0,0-.58.88,0.58,0.58,0,0,0,.21.44,1.9,1.9,0,0,0,.62.33q0.42,0.15,1.49.44l2.1,0.59q3.69,1.05,3.69,3.42a3,3,0,0,1-.7,1.9,5.06,5.06,0,0,1-2.34,1.45,13.38,13.38,0,0,1-4.32.57,17.11,17.11,0,0,1-2.49-.21,7.15,7.15,0,0,1-2.6-.91,2.22,2.22,0,0,1-1.18-2,2.36,2.36,0,0,1,1-2,1.58,1.58,0,0,1,.85-0.29,0.92,0.92,0,0,1,.44.1,0.3,0.3,0,0,1,.18.27,1.07,1.07,0,0,1-.27.53,1.87,1.87,0,0,0-.48,1.09,1.78,1.78,0,0,0,1.49,1.76,10.46,10.46,0,0,0,3,.45,7.47,7.47,0,0,0,3.06-.52,1.57,1.57,0,0,0,1.14-1.37,0.94,0.94,0,0,0-.23-0.67,2.53,2.53,0,0,0-.88-0.5q-0.65-.25-2.39-0.81a21.08,21.08,0,0,1-2.41-.89,3.56,3.56,0,0,1-1.29-.94,2,2,0,0,1-.44-1.33,2.23,2.23,0,0,1,1-1.87,5.13,5.13,0,0,1,2.33-.93,3.15,3.15,0,0,1-1.59-1.27,3.3,3.3,0,0,1-.52-1.75,3.74,3.74,0,0,1,.69-2.13,5,5,0,0,1,1.93-1.65,6.19,6.19,0,0,1,2.83-.63,5,5,0,0,1,3.5,1.09,6.08,6.08,0,0,1,1-.79,2.07,2.07,0,0,1,1.16-.3,1.25,1.25,0,0,1,.85.28A1,1,0,0,1,341.88,422.48ZM337,424.11a2,2,0,0,0-.18-0.84,1.45,1.45,0,0,0-.54-0.61,1.5,1.5,0,0,0-.83-0.23,1.92,1.92,0,0,0-1.49.75,5.09,5.09,0,0,0-1,1.78,6,6,0,0,0-.33,1.81A1.66,1.66,0,0,0,333,428a1.48,1.48,0,0,0,1.09.4,2.3,2.3,0,0,0,2.12-1.49A6.32,6.32,0,0,0,337,424.11Z" transform="translate(-3.42 -351.37)"/>
      <path class="cls-47" d="M361.65,416.15a1.44,1.44,0,0,1-.39,1,1.27,1.27,0,0,1-1,.42,1,1,0,0,1-.87-0.37,4.45,4.45,0,0,1-.55-1.2,1.31,1.31,0,0,0-.25-0.49,0.58,0.58,0,0,0-.46-0.18,0.6,0.6,0,0,0-.54.29,3,3,0,0,0-.32.77l-1.65,5.4h2.3l-0.4,1.26h-2.3l-2.38,7.78a47.29,47.29,0,0,1-1.71,4.78,8.72,8.72,0,0,1-2.15,3,5,5,0,0,1-3.5,1.25,3.66,3.66,0,0,1-2.34-.66,1.91,1.91,0,0,1-.83-1.5,1.57,1.57,0,0,1,.44-1.1,1.48,1.48,0,0,1,1.13-.47,1.17,1.17,0,0,1,1.09.44,2.83,2.83,0,0,1,.33,1.16,0.82,0.82,0,0,0,.79.93,1.32,1.32,0,0,0,1.15-.77,11.08,11.08,0,0,0,.92-2.37L352,423.07h-2.41l0.38-1.26h2.41l0.26-.87a22.55,22.55,0,0,1,1.18-3.25,7.24,7.24,0,0,1,1.91-2.47,4.7,4.7,0,0,1,3.17-1.08,3.86,3.86,0,0,1,1.35.24,2.41,2.41,0,0,1,1,.69A1.62,1.62,0,0,1,361.65,416.15Z" transform="translate(-3.42 -351.37)"/>
      <path class="cls-47" d="M370.66,426.23a6.88,6.88,0,0,1-.54,2.67,7.14,7.14,0,0,1-1.57,2.32,7.5,7.5,0,0,1-2.39,1.61,7.61,7.61,0,0,1-3,.58,6.1,6.1,0,0,1-2.82-.62,4.55,4.55,0,0,1-1.89-1.75,4.93,4.93,0,0,1-.67-2.56,6.51,6.51,0,0,1,1-3.47,7.41,7.41,0,0,1,2.75-2.61,7.61,7.61,0,0,1,3.77-1,6,6,0,0,1,2.9.66,4.49,4.49,0,0,1,1.83,1.77A4.82,4.82,0,0,1,370.66,426.23Zm-3.24-.94a3.27,3.27,0,0,0-.54-2,1.86,1.86,0,0,0-1.59-.72,2.59,2.59,0,0,0-1.83.77,6.18,6.18,0,0,0-1.34,1.92,12.17,12.17,0,0,0-.81,2.32,9,9,0,0,0-.27,2,3.22,3.22,0,0,0,.53,1.92,1.74,1.74,0,0,0,1.5.75,2.78,2.78,0,0,0,1.91-.75,5.88,5.88,0,0,0,1.37-1.91,11.11,11.11,0,0,0,.8-2.34A9.6,9.6,0,0,0,367.42,425.28Z" transform="translate(-3.42 -351.37)"/>
      <path class="cls-47" d="M384.6,423.21a2.54,2.54,0,0,1-.48,1.52,1.43,1.43,0,0,1-1.2.66,1.61,1.61,0,0,1-1.2-.72,0.88,0.88,0,0,0-.64-0.42,1.75,1.75,0,0,0-1,.69,10.63,10.63,0,0,0-1.32,1.84,25.58,25.58,0,0,0-1.33,2.63,27.45,27.45,0,0,0-1.13,3l-0.16.56H372.9l2.15-7.67a6.31,6.31,0,0,0,.34-1.54,0.61,0.61,0,0,0-.1-0.32,0.33,0.33,0,0,0-.3-0.16,1.46,1.46,0,0,0-1.08.75,7.57,7.57,0,0,0-.82,1.36h-1.26a10.13,10.13,0,0,1,1.62-2.45,5.2,5.2,0,0,1,1.6-1.21,3.51,3.51,0,0,1,1.4-.34,1.4,1.4,0,0,1,1.42.68,3.14,3.14,0,0,1,.32,1.34,14.81,14.81,0,0,1-.77,3.75q0.78-1.34,1.28-2.15a17,17,0,0,1,1.19-1.67,7.29,7.29,0,0,1,1.46-1.41,2.62,2.62,0,0,1,1.51-.55,1.47,1.47,0,0,1,1.39.59A2.38,2.38,0,0,1,384.6,423.21Z" transform="translate(-3.42 -351.37)"/>
      <path class="cls-47" d="M409.51,418.5a3.71,3.71,0,0,1-.66,2.09,5.34,5.34,0,0,1-2,1.69,9.42,9.42,0,0,1-3.06,1q3.72,1.19,3.72,4.38a4.32,4.32,0,0,1-.86,2.64,6.53,6.53,0,0,1-2.05,1.83,6.19,6.19,0,0,1-1.7.62,11.89,11.89,0,0,1-1.72.24q-0.8,0-1.77,0h-8.12l0.4-1.26a1.67,1.67,0,0,0,1.36-.52,4.52,4.52,0,0,0,.75-1.56l3.55-11.59a3.9,3.9,0,0,0,.22-1.05q0-1.3-1.6-1.3l0.37-1.26h7.45a13.23,13.23,0,0,1,2,.13,4.61,4.61,0,0,1,1.62.59,4.34,4.34,0,0,1,1.47,1.37A3.42,3.42,0,0,1,409.51,418.5Zm-5.76,7.67a1.94,1.94,0,0,0-.69-1.83,3.66,3.66,0,0,0-1.78-.38h-1.93l-1.63,5.28a3.77,3.77,0,0,0-.22,1.18,1.14,1.14,0,0,0,.46.85,2.51,2.51,0,0,0,1.63.4,4.24,4.24,0,0,0,1.76-.39,3.56,3.56,0,0,0,1.54-1.8,8.44,8.44,0,0,0,.59-1.59A6.51,6.51,0,0,0,403.75,426.17Zm2.12-8.5a1.48,1.48,0,0,0-.74-1.53,5.88,5.88,0,0,0-2.2-.31h-1.09l-2.09,6.79H401a5.59,5.59,0,0,0,2-.33,3.94,3.94,0,0,0,1.27-.71,4.75,4.75,0,0,0,1.13-1.83A6,6,0,0,0,405.87,417.67Z" transform="translate(-3.42 -351.37)"/>
      <path class="cls-47" d="M421.64,423.68a3.13,3.13,0,0,1-.34,1.29,5.13,5.13,0,0,1-1.25,1.55,8.08,8.08,0,0,1-2.6,1.45,16.69,16.69,0,0,1-4.25.86l-0.33,0a5.16,5.16,0,0,0-.11,1,1.89,1.89,0,0,0,.49,1.46,2,2,0,0,0,1.42.44,5.24,5.24,0,0,0,3.92-2.21H420a10.36,10.36,0,0,1-2.57,2.57,6.69,6.69,0,0,1-4.09,1.27,4.53,4.53,0,0,1-2.81-.88,3,3,0,0,1-1.17-2.59,7.93,7.93,0,0,1,1.16-4.07,9.22,9.22,0,0,1,3.17-3.21,8.19,8.19,0,0,1,4.38-1.24,4.44,4.44,0,0,1,2.71.64A2,2,0,0,1,421.64,423.68Zm-2.88-.05a1.26,1.26,0,0,0-.31-0.83,1.06,1.06,0,0,0-.86-0.38,2.69,2.69,0,0,0-1.76.66,6.17,6.17,0,0,0-1.35,1.57,11,11,0,0,0-.9,1.83l-0.43,1.15a9.28,9.28,0,0,0,4.19-1.57A3.12,3.12,0,0,0,418.75,423.63Z" transform="translate(-3.42 -351.37)"/>
      <path class="cls-47" d="M431.66,421.81l-0.38,1.26h-2.72l-2.06,6.75a4,4,0,0,0-.23,1.05,0.82,0.82,0,0,0,.19.53,0.59,0.59,0,0,0,.48.24,1.75,1.75,0,0,0,1.39-.77,11.43,11.43,0,0,0,1.08-1.67h1.29a8.74,8.74,0,0,1-1.73,2.65,5.29,5.29,0,0,1-1.8,1.26,4.51,4.51,0,0,1-1.54.31,2.42,2.42,0,0,1-1.83-.68,2.52,2.52,0,0,1-.66-1.82,7.74,7.74,0,0,1,.41-2.12l1.78-5.71h-2.56l0.4-1.26h2.54l1.26-4.17h3.25L429,421.81h2.71Z" transform="translate(-3.42 -351.37)"/>
      <path class="cls-47" d="M441,421.81l-0.38,1.26h-2.72l-2.06,6.75a4,4,0,0,0-.23,1.05,0.82,0.82,0,0,0,.19.53,0.59,0.59,0,0,0,.48.24,1.75,1.75,0,0,0,1.39-.77,11.43,11.43,0,0,0,1.08-1.67H440a8.74,8.74,0,0,1-1.73,2.65,5.29,5.29,0,0,1-1.8,1.26,4.51,4.51,0,0,1-1.54.31,2.42,2.42,0,0,1-1.83-.68,2.52,2.52,0,0,1-.66-1.82,7.74,7.74,0,0,1,.41-2.12l1.78-5.71h-2.56l0.4-1.26H435l1.26-4.17h3.25l-1.26,4.17H441Z" transform="translate(-3.42 -351.37)"/>
      <path class="cls-47" d="M453.42,423.68a3.13,3.13,0,0,1-.34,1.29,5.13,5.13,0,0,1-1.25,1.55,8.08,8.08,0,0,1-2.6,1.45,16.69,16.69,0,0,1-4.25.86l-0.33,0a5.16,5.16,0,0,0-.11,1,1.89,1.89,0,0,0,.49,1.46,2,2,0,0,0,1.42.44,5.24,5.24,0,0,0,3.92-2.21h1.45a10.36,10.36,0,0,1-2.57,2.57,6.69,6.69,0,0,1-4.09,1.27,4.53,4.53,0,0,1-2.81-.88,3,3,0,0,1-1.17-2.59,7.93,7.93,0,0,1,1.16-4.07,9.22,9.22,0,0,1,3.17-3.21,8.19,8.19,0,0,1,4.38-1.24,4.44,4.44,0,0,1,2.71.64A2,2,0,0,1,453.42,423.68Zm-2.88-.05a1.26,1.26,0,0,0-.31-0.83,1.06,1.06,0,0,0-.86-0.38,2.69,2.69,0,0,0-1.76.66,6.17,6.17,0,0,0-1.35,1.57,11,11,0,0,0-.9,1.83l-0.43,1.15a9.28,9.28,0,0,0,4.19-1.57A3.12,3.12,0,0,0,450.54,423.63Z" transform="translate(-3.42 -351.37)"/>
      <path class="cls-47" d="M466.56,423.21a2.54,2.54,0,0,1-.48,1.52,1.43,1.43,0,0,1-1.2.66,1.61,1.61,0,0,1-1.2-.72,0.88,0.88,0,0,0-.64-0.42,1.75,1.75,0,0,0-1,.69,10.63,10.63,0,0,0-1.32,1.84,25.58,25.58,0,0,0-1.33,2.63,27.45,27.45,0,0,0-1.13,3l-0.16.56h-3.21l2.15-7.67a6.31,6.31,0,0,0,.34-1.54,0.61,0.61,0,0,0-.1-0.32,0.33,0.33,0,0,0-.3-0.16,1.46,1.46,0,0,0-1.08.75,7.57,7.57,0,0,0-.82,1.36h-1.26a10.13,10.13,0,0,1,1.62-2.45,5.2,5.2,0,0,1,1.6-1.21,3.51,3.51,0,0,1,1.4-.34,1.4,1.4,0,0,1,1.42.68,3.14,3.14,0,0,1,.32,1.34,14.81,14.81,0,0,1-.77,3.75q0.78-1.34,1.28-2.15a17,17,0,0,1,1.19-1.67,7.29,7.29,0,0,1,1.46-1.41,2.62,2.62,0,0,1,1.51-.55,1.47,1.47,0,0,1,1.39.59A2.38,2.38,0,0,1,466.56,423.21Z" transform="translate(-3.42 -351.37)"/>
      <path class="cls-47" d="M491.23,419h-1.31a10.38,10.38,0,0,0-.8-1.8,2.92,2.92,0,0,0-.83-0.94,2.33,2.33,0,0,0-1-.37,15.69,15.69,0,0,0-1.81-.08h-1.57l-2.12,6.9h0.89a6.81,6.81,0,0,0,1.68-.16,2.36,2.36,0,0,0,1.61-1.29,12.06,12.06,0,0,0,.5-1.31h1.34l-2.24,7.3H484.2a5.63,5.63,0,0,0,.37-1.68q0-1.5-2.11-1.5h-1.12l-1.57,5.15a5.24,5.24,0,0,0-.25,1.2,1.06,1.06,0,0,0,.3.81,1.61,1.61,0,0,0,.72.4,2.89,2.89,0,0,0,.72.11h0.64l-0.4,1.26h-8.15l0.4-1.26a1.71,1.71,0,0,0,1.42-.55,4.29,4.29,0,0,0,.72-1.52l3.53-11.59a5,5,0,0,0,.25-1.08,1,1,0,0,0-.57-1.05,3.7,3.7,0,0,0-1.33-.22l0.33-1.26h13Z" transform="translate(-3.42 -351.37)"/>
      <path class="cls-47" d="M504.19,429.56a9.8,9.8,0,0,1-1.62,2.6,3.57,3.57,0,0,1-2.86,1.24,1.87,1.87,0,0,1-1.58-.6,2.24,2.24,0,0,1-.46-1.39,4.19,4.19,0,0,1,.13-0.9q0.13-.56.33-1.24l0.45-1.54a25.12,25.12,0,0,1-3,4,4.66,4.66,0,0,1-3.45,1.65,1.93,1.93,0,0,1-1.49-.56,1.88,1.88,0,0,1-.52-1.33,7,7,0,0,1,.38-2l1.38-4.51a4.33,4.33,0,0,0,.27-1.18,0.65,0.65,0,0,0-.1-0.33,0.37,0.37,0,0,0-.35-0.17q-0.81,0-2,1.91H488.4a14.12,14.12,0,0,1,2.07-2.61,3.91,3.91,0,0,1,2.85-1.12,2.59,2.59,0,0,1,1.43.42,1.7,1.7,0,0,1,.65,1.55,3.8,3.8,0,0,1-.18,1.2l-1.12,3.64a7.21,7.21,0,0,0-.38,1.82,1,1,0,0,0,.18.57,0.58,0.58,0,0,0,.51.27,2.56,2.56,0,0,0,1.59-1,14.18,14.18,0,0,0,2.06-3,35,35,0,0,0,2.18-5.19h3.25l-2.56,8.34a6.65,6.65,0,0,0-.25,1.07,0.55,0.55,0,0,0,.13.33,0.36,0.36,0,0,0,.28.17,1.26,1.26,0,0,0,1-.68,10.57,10.57,0,0,0,.83-1.48h1.29Z" transform="translate(-3.42 -351.37)"/>
      <path class="cls-47" d="M514.48,421.81l-0.38,1.26h-2.72l-2.06,6.75a4,4,0,0,0-.23,1.05,0.82,0.82,0,0,0,.19.53,0.59,0.59,0,0,0,.48.24,1.75,1.75,0,0,0,1.39-.77,11.43,11.43,0,0,0,1.08-1.67h1.29a8.74,8.74,0,0,1-1.73,2.65,5.29,5.29,0,0,1-1.8,1.26,4.51,4.51,0,0,1-1.54.31,2.42,2.42,0,0,1-1.83-.68,2.52,2.52,0,0,1-.66-1.82,7.74,7.74,0,0,1,.41-2.12l1.78-5.71h-2.56l0.4-1.26h2.54l1.26-4.17H513l-1.26,4.17h2.71Z" transform="translate(-3.42 -351.37)"/>
      <path class="cls-47" d="M529.84,429.56a9.8,9.8,0,0,1-1.62,2.6,3.57,3.57,0,0,1-2.86,1.24,1.87,1.87,0,0,1-1.58-.6,2.24,2.24,0,0,1-.46-1.39,4.19,4.19,0,0,1,.13-0.9q0.13-.56.33-1.24l0.45-1.54a25.12,25.12,0,0,1-3,4,4.66,4.66,0,0,1-3.45,1.65,1.93,1.93,0,0,1-1.49-.56,1.88,1.88,0,0,1-.52-1.33,7,7,0,0,1,.38-2l1.38-4.51a4.33,4.33,0,0,0,.27-1.18,0.65,0.65,0,0,0-.1-0.33,0.37,0.37,0,0,0-.35-0.17q-0.81,0-2,1.91H514a14.12,14.12,0,0,1,2.07-2.61,3.91,3.91,0,0,1,2.85-1.12,2.59,2.59,0,0,1,1.43.42,1.7,1.7,0,0,1,.65,1.55,3.8,3.8,0,0,1-.18,1.2l-1.12,3.64a7.21,7.21,0,0,0-.38,1.82,1,1,0,0,0,.18.57,0.58,0.58,0,0,0,.51.27,2.56,2.56,0,0,0,1.59-1,14.18,14.18,0,0,0,2.06-3,35,35,0,0,0,2.18-5.19h3.25l-2.56,8.34a6.65,6.65,0,0,0-.25,1.07,0.55,0.55,0,0,0,.13.33,0.36,0.36,0,0,0,.28.17,1.26,1.26,0,0,0,1-.68,10.57,10.57,0,0,0,.83-1.48h1.29Z" transform="translate(-3.42 -351.37)"/>
      <path class="cls-47" d="M543.25,423.21a2.54,2.54,0,0,1-.48,1.52,1.43,1.43,0,0,1-1.2.66,1.61,1.61,0,0,1-1.2-.72,0.88,0.88,0,0,0-.64-0.42,1.75,1.75,0,0,0-1,.69,10.63,10.63,0,0,0-1.32,1.84,25.58,25.58,0,0,0-1.33,2.63,27.45,27.45,0,0,0-1.13,3l-0.16.56h-3.21l2.15-7.67a6.31,6.31,0,0,0,.34-1.54,0.61,0.61,0,0,0-.1-0.32,0.33,0.33,0,0,0-.3-0.16,1.46,1.46,0,0,0-1.08.75,7.57,7.57,0,0,0-.82,1.36h-1.26A10.13,10.13,0,0,1,532.1,423a5.2,5.2,0,0,1,1.6-1.21,3.51,3.51,0,0,1,1.4-.34,1.4,1.4,0,0,1,1.42.68,3.14,3.14,0,0,1,.32,1.34,14.81,14.81,0,0,1-.77,3.75q0.78-1.34,1.28-2.15a17,17,0,0,1,1.19-1.67A7.29,7.29,0,0,1,540,422a2.62,2.62,0,0,1,1.51-.55,1.47,1.47,0,0,1,1.39.59A2.38,2.38,0,0,1,543.25,423.21Z" transform="translate(-3.42 -351.37)"/>
      <path class="cls-47" d="M555.46,423.68a3.13,3.13,0,0,1-.34,1.29,5.13,5.13,0,0,1-1.25,1.55,8.08,8.08,0,0,1-2.6,1.45,16.69,16.69,0,0,1-4.25.86l-0.33,0a5.16,5.16,0,0,0-.11,1,1.89,1.89,0,0,0,.49,1.46,2,2,0,0,0,1.42.44,5.24,5.24,0,0,0,3.92-2.21h1.45a10.36,10.36,0,0,1-2.57,2.57,6.69,6.69,0,0,1-4.09,1.27,4.53,4.53,0,0,1-2.81-.88,3,3,0,0,1-1.17-2.59,7.93,7.93,0,0,1,1.16-4.07,9.22,9.22,0,0,1,3.17-3.21,8.19,8.19,0,0,1,4.38-1.24,4.44,4.44,0,0,1,2.71.64A2,2,0,0,1,555.46,423.68Zm-2.88-.05a1.26,1.26,0,0,0-.31-0.83,1.06,1.06,0,0,0-.86-0.38,2.69,2.69,0,0,0-1.76.66,6.17,6.17,0,0,0-1.35,1.57,11,11,0,0,0-.9,1.83L547,427.64a9.28,9.28,0,0,0,4.19-1.57A3.12,3.12,0,0,0,552.57,423.63Z" transform="translate(-3.42 -351.37)"/>
    </g>
  </g>
</svg>
